<?xml version="1.0" encoding="UTF-8"?>
<svg id="uuid-07c02fee-9852-4765-bd29-32353791107d" data-name="Layer 2" xmlns="http://www.w3.org/2000/svg" width="26.63mm" height="26.54mm" xmlns:xlink="http://www.w3.org/1999/xlink" viewBox="0 0 75.48 75.23">
  <defs>
    <linearGradient id="uuid-8a42bbf8-3b15-45ed-a35a-b2c4e4d33d13" data-name="Sfumatura senza nome 3" x1="42.32" y1="57.25" x2="75.47" y2="57.25" gradientUnits="userSpaceOnUse">
      <stop offset="0" stop-color="#72c3b1"/>
      <stop offset=".2" stop-color="#70c3b5"/>
      <stop offset=".43" stop-color="#67c1be"/>
      <stop offset=".67" stop-color="#59b8c9"/>
      <stop offset=".91" stop-color="#51a8d2"/>
      <stop offset="1" stop-color="#4ea0d5"/>
    </linearGradient>
    <linearGradient id="uuid-d4329d95-9cc1-4ecf-a7b3-47cd04a7a2ab" data-name="Sfumatura senza nome 3" x1="0" y1="24.86" x2="75.48" y2="24.86" xlink:href="#uuid-8a42bbf8-3b15-45ed-a35a-b2c4e4d33d13"/>
  </defs>
  <g id="uuid-75f22c10-7830-4b8f-aaa4-662fb98a4a15" data-name="Livello 1">
    <g>
      <path d="M50.03,49.91c-1.9,1.9-4.12,3.25-6.48,4.08.99,7.07.58,14.3-1.23,21.24,18.18-2.2,32.4-17.36,33.14-35.95h-20.51c-.32,3.86-1.95,7.64-4.93,10.63Z" fill="url(#uuid-8a42bbf8-3b15-45ed-a35a-b2c4e4d33d13)" stroke-width="0"/>
      <path d="M42.68,33.12c-2.66-2.66-6.86-2.67-9.51-.02-2.68,2.67-2.69,6.91-.04,9.57,2.65,2.65,6.9,2.64,9.57-.03,2.64-2.64,2.64-6.86-.02-9.51Z" fill="#1a1a1a" stroke-width="0"/>
      <path d="M37.76,0C16.94,0,0,16.94,0,37.76c0,4.18.69,8.2,1.95,11.96h0l23.6-23.6s.1-.08.15-.12c.07-.08.13-.16.21-.23,6.7-6.69,17.35-6.67,24.07.06,3,3,4.64,6.78,4.97,10.65h20.52C74.8,16.25,58.15,0,37.76,0Z" fill="url(#uuid-d4329d95-9cc1-4ecf-a7b3-47cd04a7a2ab)" stroke-width="0"/>
    </g>
  </g>
</svg>