<?xml version="1.0" encoding="UTF-8"?>
<svg id="uuid-c39f7d54-9193-409d-ba8f-0e36cede5230" data-name="Layer 2" xmlns="http://www.w3.org/2000/svg" width="35.3mm" height="9.15mm" xmlns:xlink="http://www.w3.org/1999/xlink" viewBox="0 0 100.05 25.95">
  <defs>
    <linearGradient id="uuid-d187890f-3c93-47a6-9008-8f21dfa0d8af" data-name="Sfumatura senza nome 3" x1="31.8" y1="20.89" x2="39.22" y2="20.89" gradientUnits="userSpaceOnUse">
      <stop offset="0" stop-color="#72c3b1"/>
      <stop offset=".2" stop-color="#70c3b5"/>
      <stop offset=".43" stop-color="#67c1be"/>
      <stop offset=".67" stop-color="#59b8c9"/>
      <stop offset=".91" stop-color="#51a8d2"/>
      <stop offset="1" stop-color="#4ea0d5"/>
    </linearGradient>
    <linearGradient id="uuid-67b6d2e1-d9ff-4828-93b9-9d3a414d28e5" data-name="Sfumatura senza nome 3" x1="22.32" y1="13.63" x2="39.22" y2="13.63" xlink:href="#uuid-d187890f-3c93-47a6-9008-8f21dfa0d8af"/>
  </defs>
  <g id="uuid-402ee526-2de8-4e89-9d1c-51fc5a0de152" data-name="Livello 1">
    <g>
      <g>
        <polygon points="46.3 1.27 45.83 .77 40.81 1.3 40.81 1.79 42.77 2.21 42.77 23.53 40.81 24.15 40.81 24.6 48.25 24.6 48.25 24.15 46.3 23.53 46.3 1.27" fill="#3c3c3b" stroke-width="0"/>
        <polygon points="54.84 8.44 54.37 7.94 49.35 8.47 49.35 8.95 51.3 9.38 51.3 23.53 49.35 24.15 49.35 24.6 56.79 24.6 56.79 24.15 54.84 23.53 54.84 8.44" fill="#3c3c3b" stroke-width="0"/>
        <path d="M52.84,6.07c1.38,0,2.42-1.03,2.42-2.39s-1.04-2.39-2.42-2.39-2.39,1-2.39,2.39,1,2.39,2.39,2.39Z" fill="#3c3c3b" stroke-width="0"/>
        <path d="M68.64,8.04c-2.09,0-3.94.77-5.34,2.22l-.02-.02.1-1.99V1.27l-.47-.5-5.02.53v.48l1.95.42v21.46l.05.02c1.72.68,4.08,1.08,6.31,1.08,5.82,0,8.9-3.02,8.9-8.74,0-5.08-2.35-7.99-6.46-7.99ZM71.5,16.55c0,4.89-1.81,7.58-5.11,7.58-.84,0-1.77-.18-3.02-.6v-12.43c.96-1.15,2.25-1.78,3.64-1.78,2.68,0,4.49,2.9,4.49,7.22Z" fill="#3c3c3b" stroke-width="0"/>
        <path d="M87.01,8.04c-2.93,0-4.49,2.73-4.78,3.27h0s.1-2.87.1-2.87l-.47-.51-5.02.53v.48l1.95.42v14.16l-1.95.62v.45h8.42v-.46l-2.93-.62v-10.91c.09-.23,1.45-3.65,3.87-3.65.21,0,.34.03.45.1v2.57c0,1.35.87,2.26,2.16,2.26s2.06-.84,2.06-2.26c0-2.08-1.62-3.59-3.85-3.59Z" fill="#3c3c3b" stroke-width="0"/>
        <polygon points="98.1 23.53 98.1 8.44 97.63 7.94 92.61 8.47 92.61 8.95 94.56 9.38 94.56 23.53 92.61 24.15 92.61 24.6 100.05 24.6 100.05 24.15 98.1 23.53" fill="#3c3c3b" stroke-width="0"/>
        <polygon points="98.97 6.19 94.38 1.49 92.4 3.51 98.56 6.64 98.97 6.19" fill="#3c3c3b" stroke-width="0"/>
        <path d="M21.51,21.73c-1.9,1.93-4.45,2.91-7.59,2.91-6.24,0-9.67-4.19-9.67-11.81S7.49.98,13.15.98c6.15,0,7.65,4.01,8.01,5.74v.06h.76V1.67l-.42-.42-1.53.91c-1.83-1.37-4.58-2.16-7.54-2.16C4.88,0,0,5.09,0,12.97c0,3.92,1.18,7.2,3.42,9.49,2.22,2.28,5.39,3.48,9.16,3.48s7.03-1.24,9.44-3.68l.05-.05-.5-.54-.05.06Z" fill="#3c3c3b" stroke-width="0"/>
      </g>
      <g>
        <path d="M33.52,19.24c-.42.42-.92.73-1.45.91.22,1.58.13,3.2-.28,4.76,4.07-.49,7.25-3.89,7.42-8.05h-4.59c-.07.87-.44,1.71-1.1,2.38Z" fill="url(#uuid-d187890f-3c93-47a6-9008-8f21dfa0d8af)" stroke-width="0"/>
        <path d="M31.87,15.48c-.6-.6-1.54-.6-2.13,0-.6.6-.6,1.55,0,2.14.59.59,1.55.59,2.14,0,.59-.59.59-1.54,0-2.13Z" fill="#1a1a1a" stroke-width="0"/>
        <path d="M30.77,8.07c-4.66,0-8.45,3.79-8.45,8.45,0,.94.16,1.84.44,2.68h0l5.28-5.28s.02-.02.03-.03c.02-.02.03-.03.05-.05,1.5-1.5,3.88-1.49,5.39.01.67.67,1.04,1.52,1.11,2.38h4.59c-.15-4.53-3.88-8.17-8.45-8.17Z" fill="url(#uuid-67b6d2e1-d9ff-4828-93b9-9d3a414d28e5)" stroke-width="0"/>
      </g>
    </g>
  </g>
</svg>